<svg xmlns="http://www.w3.org/2000/svg" viewBox="0 0 256 256" role="img" aria-label="Coffee cup icon" preserveAspectRatio="xMidYMid meet">
  <defs>
    <linearGradient id="cupGloss" x1="0" y1="0" x2="1" y2="1">
      <stop offset="0" stop-color="#ffffff" stop-opacity="0.35" />
      <stop offset="0.55" stop-color="#ffffff" stop-opacity="0.08" />
      <stop offset="1" stop-color="#ffffff" stop-opacity="0" />
    </linearGradient>

    <linearGradient id="lidGrad" x1="0" y1="0" x2="0" y2="1">
      <stop offset="0" stop-color="#4a4f58" />
      <stop offset="1" stop-color="#2f333a" />
    </linearGradient>

    <linearGradient id="sleeveGrad" x1="0" y1="0" x2="1" y2="0">
      <stop offset="0" stop-color="#d69a54" />
      <stop offset="1" stop-color="#b97738" />
    </linearGradient>

    <filter id="softShadow" x="-20%" y="-20%" width="140%" height="140%">
      <feDropShadow dx="0" dy="4" stdDeviation="3" flood-color="#000000" flood-opacity="0.18" />
    </filter>
  </defs>

  <g transform="translate(0 -20)"><g filter="url(#softShadow)" stroke="#1f2430" stroke-width="6" stroke-linejoin="round" stroke-linecap="round">
    <path fill="url(#lidGrad)" d="M66 42          h124          c10 0 18 8 18 18          v10          c0 6-5 11-11 11          H59          c-6 0-11-5-11-11          V60          c0-10 8-18 18-18          z" />

    <path fill="#3a3f47" d="M44 70          h168          c6 0 11 5 11 11          v12          c0 7-6 13-13 13          H46          c-7 0-13-6-13-13          V81          c0-6 5-11 11-11          z" />

    <path fill="#ffffff" d="M68 98          h120          c10 0 18 8 18 18          l-14 112          c-2 16-16 28-32 28          H96          c-16 0-30-12-32-28          L50 116          c0-10 8-18 18-18          z" />

    <path fill="url(#sleeveGrad)" d="M62 118          h132          c8 0 14 6 14 14          v34          c0 8-6 14-14 14          H62          c-8 0-14-6-14-14          v-34          c0-8 6-14 14-14          z" />

    <path fill="none" opacity="0.35" d="M60 126          h136          c4 0 8 4 8 8          v30          c0 4-4 8-8 8          H60          c-4 0-8-4-8-8          v-30          c0-4 4-8 8-8          z" />

    <path fill="url(#cupGloss)" stroke="none" d="M78 110          c-6 42 4 98 10 120          c2 8 10 14 18 14          h10          c-10-22-20-92-14-148          c1-8 4-14 8-18          H92          c-6 0-12 4-14 12          z" />
  </g>
</g></svg>